<svg width="200" height="200" xmlns="http://www.w3.org/2000/svg" xmlns:xlink="http://www.w3.org/1999/xlink" xml:space="preserve" overflow="hidden"><defs><clipPath id="clip0"><rect x="0" y="0" width="200" height="200"/></clipPath></defs><g clip-path="url(#clip0)"><path d="M8.33333 93.75 45.8333 93.75 45.8333 106.25 8.33333 106.25Z" fill="#FFFFFF"/><path d="M154.167 93.75 191.667 93.75 191.667 106.25 154.167 106.25Z" fill="#FFFFFF"/><path d="M145.833 100C145.833 125.313 125.313 145.833 100 145.833 74.6869 145.833 54.1667 125.313 54.1667 100 54.1667 74.6869 74.6869 54.1667 100 54.1667 125.313 54.1667 145.833 74.6869 145.833 100Z" fill="#FFFFFF"/><path d="M93.75 154.167 106.25 154.167 106.25 191.667 93.75 191.667Z" fill="#FFFFFF"/><path d="M93.75 8.33333 106.25 8.33333 106.25 45.8333 93.75 45.8333Z" fill="#FFFFFF"/><path d="M66.0152 142.612 39.499 169.128 30.6602 160.289 57.1765 133.773Z" fill="#FFFFFF"/><path d="M169.339 39.7055 142.822 66.2217 133.984 57.383 160.5 30.8667Z" fill="#FFFFFF"/><path d="M66.2188 57.1781 57.3801 66.0169 30.8638 39.5006 39.7026 30.6619Z" fill="#FFFFFF"/><path d="M169.133 160.496 160.294 169.335 133.778 142.819 142.617 133.98Z" fill="#FFFFFF"/></g></svg>