<svg width="200" height="200" xmlns="http://www.w3.org/2000/svg" xmlns:xlink="http://www.w3.org/1999/xlink" xml:space="preserve" overflow="hidden"><defs><clipPath id="clip0"><rect x="0" y="0" width="200" height="200"/></clipPath></defs><g clip-path="url(#clip0)"><path d="M153.125 45.8333 145 53.9583C170.833 79.7917 170.833 121.875 145 147.708L153.125 155.833C183.542 125.625 183.542 76.25 153.125 45.8333Z" fill="#00B0F0"/><path d="M136.667 62.0833 128.542 70.2083C145.417 87.0833 145.417 114.375 128.542 131.458L136.667 139.583C158.125 118.125 158.125 83.5417 136.667 62.0833Z" fill="#00B0F0"/><path d="M120.625 78.75 112.5 86.875C120.417 94.7917 120.417 107.5 112.5 115.417L120.625 123.542C133.125 111.042 133.125 91.0417 120.625 78.75Z" fill="#00B0F0"/><path d="M7.29167 72.0833 7.29167 127.917 47.7083 127.917 100 170.833 100 29.1667 47.7083 72.0833Z" fill="#00B0F0"/></g></svg>